<svg xmlns="http://www.w3.org/2000/svg" xmlns:xlink="http://www.w3.org/1999/xlink" width="51" height="43" viewBox="0 0 51 43">
  <defs>
    <clipPath id="clip-path">
      <rect id="Rectangle_10" data-name="Rectangle 10" width="51" height="43" transform="translate(0 0)" fill="none"/>
    </clipPath>
  </defs>
  <g id="Cart" transform="translate(0 0)">
    <g id="Group_8" data-name="Group 8">
      <g id="Group_7" data-name="Group 7" clip-path="url(#clip-path)">
        <path id="Path_27" data-name="Path 27" d="M15.426,30.7,10.876,4.554H51V20.593a5.573,5.573,0,0,1-4.9,5.557ZM13.184,6.51,17.01,28.491l28.852-4.28a3.627,3.627,0,0,0,3.2-3.617V6.51Z" fill="#fff"/>
        <path id="Path_28" data-name="Path 28" d="M45.943,36.862H16.594l-6.443-34.9H0V0h11.76l6.446,34.907H45.943Z" fill="#fff"/>
        <path id="Path_29" data-name="Path 29" d="M20.813,42.947a4.924,4.924,0,0,1-4.487-6.828l1.786.761a2.933,2.933,0,1,0,5.38-.055l1.769-.8a4.927,4.927,0,0,1-4.447,6.924" fill="#fff"/>
        <path id="Path_30" data-name="Path 30" d="M41.486,43A4.924,4.924,0,0,1,37,36.171l1.786.761a2.932,2.932,0,1,0,5.378-.055l1.769-.8A4.923,4.923,0,0,1,41.486,43" fill="#fff"/>
      </g>
    </g>
  </g>
</svg>
