<svg id="Grow_Your_own_way" data-name="Grow Your own way" xmlns="http://www.w3.org/2000/svg" xmlns:xlink="http://www.w3.org/1999/xlink" width="631" height="549" viewBox="0 0 631 549">
  <defs>
    <clipPath id="clip-path">
      <rect id="Rectangle_2" data-name="Rectangle 2" width="631" height="549" fill="none"/>
    </clipPath>
  </defs>
  <g id="Group_2" data-name="Group 2">
    <g id="Group_1" data-name="Group 1" clip-path="url(#clip-path)">
      <path id="Path_1" data-name="Path 1" d="M102.244,0l3.011,32.278h-3.193c-3.028-8-6.979-14.032-11.786-18.1q-10.438-8.751-26.8-8.774-22.288,0-33.931,15.467-9.729,13.021-9.732,31.074A55.353,55.353,0,0,0,26.3,78.635q6.457,12.05,16.948,17.681A45.216,45.216,0,0,0,64.8,101.936a54.743,54.743,0,0,0,12.533-1.443,53.449,53.449,0,0,0,11.638-4.25V66.563q0-7.728-1.322-10.084a8.658,8.658,0,0,0-4.161-3.637c-1.887-.85-5.19-1.259-9.906-1.259V48.8h45.289v2.78h-2.153c-4.479,0-7.543,1.313-9.23,3.939-1.15,1.852-1.707,5.534-1.707,11.041V97.94a94.725,94.725,0,0,1-19.574,6.9,97.241,97.241,0,0,1-21.5,2.187q-33.919,0-51.5-19.021Q-.008,73.757,0,55.113a49.546,49.546,0,0,1,7.426-25.9A59.346,59.346,0,0,1,31.58,6.568Q44.441,0,61.973,0A69.142,69.142,0,0,1,73.556.9,121.508,121.508,0,0,1,88.361,4.888a26.63,26.63,0,0,0,6.486,1.6,3.657,3.657,0,0,0,2.8-1.316c.766-.874,1.232-2.6,1.414-5.169Z" fill="#e92f2b"/>
      <path id="Path_2" data-name="Path 2" d="M241.192,104.716H209.8L169.963,56.836c-2.856.1-5.19.155-6.988.155-.739,0-1.533-.027-2.353-.055-.858-.019-1.715-.046-2.628-.1V86.643c0,6.439.794,10.423,2.416,11.972q3.271,3.311,9.815,3.319H174.8v2.781H124.564v-2.781h4.387q7.429,0,10.617-4.221c1.2-1.541,1.8-5.252,1.8-11.07V20.39c0-6.437-.794-10.431-2.418-11.972q-3.364-3.324-10-3.319h-4.387V2.318h42.689q18.7,0,27.538,2.371a32.117,32.117,0,0,1,15.032,8.772,21.094,21.094,0,0,1,6.194,15.218,22.31,22.31,0,0,1-7.051,16.4C204.25,49.705,197,52.978,187.12,54.9l24.264,29.325c5.546,6.738,10.289,11.242,14.274,13.458,3.949,2.244,9.141,3.628,15.534,4.248ZM158,52.049c1.095,0,2.035,0,2.827.027s1.45.045,1.952.045q16.583,0,24.993-6.327,8.455-6.373,8.438-16.168a19.9,19.9,0,0,0-6.787-15.592c-4.534-3.993-10.554-6-18.005-6A88.129,88.129,0,0,0,158,9.421Z" fill="#e92f2b"/>
      <path id="Path_3" data-name="Path 3" d="M233.529,38.454a34.107,34.107,0,0,1,3.212-14.7,36.544,36.544,0,0,1,8.93-11.99A42.861,42.861,0,0,1,259.38,3.706,50.364,50.364,0,0,1,276.866.77a51.015,51.015,0,0,1,17.751,2.991,41.43,41.43,0,0,1,13.791,8.232,37.464,37.464,0,0,1,12.15,28.03,36.453,36.453,0,0,1-3.248,15.264,37.1,37.1,0,0,1-8.985,12.355,42.512,42.512,0,0,1-13.709,8.27,48.865,48.865,0,0,1-17.4,3.01,56.337,56.337,0,0,1-9.258-.8,47.643,47.643,0,0,1-9.787-2.627,43.456,43.456,0,0,1-9.287-4.915,33.774,33.774,0,0,1-7.871-7.513,36.323,36.323,0,0,1-5.455-10.6,44.1,44.1,0,0,1-2.035-14.006m16.8,1.058c0,1,.027,2.572.119,4.714a50.524,50.524,0,0,0,.885,7.176,46.152,46.152,0,0,0,2.325,8.134,26.05,26.05,0,0,0,4.544,7.64,23.1,23.1,0,0,0,7.543,5.645,29.437,29.437,0,0,0,22.494,0,23.076,23.076,0,0,0,7.579-5.645,24.737,24.737,0,0,0,4.6-7.64,45.224,45.224,0,0,0,2.334-8.107,49.163,49.163,0,0,0,.885-7.1c.082-2.115.119-3.656.119-4.659,0-1.723-.064-3.783-.21-6.2a46.228,46.228,0,0,0-1.095-7.523,40.639,40.639,0,0,0-2.59-7.695,23.687,23.687,0,0,0-4.688-6.822,22.279,22.279,0,0,0-7.343-4.913,27.141,27.141,0,0,0-10.672-1.879,27.977,27.977,0,0,0-9.906,1.6,22.044,22.044,0,0,0-7.189,4.295,24.254,24.254,0,0,0-4.9,6.236,35.946,35.946,0,0,0-2.973,7.387A47.417,47.417,0,0,0,250.715,32c-.265,2.646-.383,5.144-.383,7.514" fill="#e92f2b"/>
      <path id="Path_4" data-name="Path 4" d="M483.3,2.318V5.1a16.689,16.689,0,0,0-7.434,1.44,14.8,14.8,0,0,0-5.419,5.353c-1.148,1.751-2.982,5.973-5.455,12.611l-32.544,82.528h-3.485L402.25,41.545l-26.388,65.486h-3.155L337.98,22.086c-2.59-6.382-4.241-10.139-4.925-11.3a10.486,10.486,0,0,0-4.716-4.276A18.934,18.934,0,0,0,320.266,5.1V2.318h43.271V5.1H361.45c-3.037,0-5.372.61-6.988,1.823a5.336,5.336,0,0,0-2.416,4.377c0,1.778,1.267,5.844,3.8,12.228l23.078,57.426,19.492-48.8-3.54-8.6-2.772-6.9a37,37,0,0,0-4.04-6.693,10.875,10.875,0,0,0-2.774-2.445,15.784,15.784,0,0,0-4.332-1.95,20.716,20.716,0,0,0-5.181-.466V2.318h45.543V5.1H418.2q-4.828,0-7.077,1.823a6,6,0,0,0-2.244,4.943c0,2.572,1.3,7.1,3.894,13.541L435.27,80.98l22.257-56.369q3.8-9.424,3.8-13.056a5.04,5.04,0,0,0-1.241-3.264,6.8,6.8,0,0,0-3.147-2.134A28.779,28.779,0,0,0,448.388,5.1V2.318Z" fill="#e92f2b"/>
      <rect id="Rectangle_1" data-name="Rectangle 1" width="57.812" height="8.16" transform="translate(245.917 96.454)" fill="#e92f2b"/>
      <path id="Path_5" data-name="Path 5" d="M82.549,147.243H123.44v2.781H121.2a19.7,19.7,0,0,0-6.568,1.751,26.034,26.034,0,0,0-7.871,4.987,68.918,68.918,0,0,0-8.7,10.6L69.87,205.829V231.88c0,6.3.83,10.239,2.446,11.807q3.323,3.175,10.5,3.173H86.68v2.773H36.44V246.86h4.214c5.016,0,8.557-1.313,10.672-3.939,1.268-1.622,1.916-5.307,1.916-11.041V207.935L21.171,164.641c-3.8-4.987-6.367-8.133-7.727-9.365-1.359-1.268-4.159-2.754-8.428-4.5A13.147,13.147,0,0,0,0,150.025v-2.781H50v2.781H47.4a16.962,16.962,0,0,0-7.489,1.668c-2.262,1.113-3.42,2.754-3.42,4.97,0,1.833,1.768,5.1,5.309,9.83l24.263,33,23.115-31.55c3.484-4.742,5.19-8.27,5.19-10.586a6.153,6.153,0,0,0-1.241-3.783,8.242,8.242,0,0,0-3.594-2.6,19.459,19.459,0,0,0-6.988-.948Z" fill="#e92f2b"/>
      <path id="Path_6" data-name="Path 6" d="M190.424,144.926A56.8,56.8,0,0,1,229.9,160.061q16.72,15.142,16.711,37.786,0,23.321-16.83,38.717-16.8,15.4-40.745,15.391-24.149,0-40.591-15.035-16.459-15.018-16.455-38.863,0-24.372,18.99-39.774,16.488-13.348,39.443-13.357m-1.652,5.406q-15.653,0-25.148,10.194-11.809,12.707-11.822,37.166,0,25.058,12.231,38.588c6.285,6.848,14.541,10.268,24.83,10.268q16.488,0,27.21-11.253,10.739-11.271,10.727-35.489,0-26.3-11.822-39.209-9.455-10.272-26.206-10.266" fill="#e92f2b"/>
      <path id="Path_7" data-name="Path 7" d="M338.1,150.021V147.24h41.211v2.781h-4.387c-4.6,0-8.136,1.668-10.617,5.042-1.2,1.577-1.8,5.18-1.8,10.869v41.488q0,15.415-3.475,23.89c-2.336,5.662-6.933,10.522-13.736,14.572s-16.074,6.071-27.8,6.071q-19.156,0-29.071-5.817a32.388,32.388,0,0,1-14.065-15.628q-2.776-6.715-2.774-25.194v-40c0-6.283-1-10.4-2.973-12.355s-5.19-2.936-9.614-2.936h-4.387V147.24H305.2v2.781h-4.479c-4.834,0-8.292,1.34-10.353,3.984-1.442,1.806-2.153,5.59-2.153,11.308v44.606a88.035,88.035,0,0,0,1.241,13.668c.858,5.125,2.363,9.11,4.542,11.991a24.571,24.571,0,0,0,9.459,7.1,36.847,36.847,0,0,0,15.161,2.78,46.926,46.926,0,0,0,20.578-4.367c6.039-2.908,10.17-6.674,12.377-11.2q3.313-6.839,3.331-23.142V165.313c0-6.382-.794-10.376-2.418-11.972q-3.367-3.324-9.988-3.319Z" fill="#e92f2b"/>
      <path id="Path_8" data-name="Path 8" d="M429.687,201.759q-4.282.152-6.977.156c-.739,0-1.533-.027-2.353-.055-.858-.019-1.715-.046-2.628-.1v29.808c0,6.439.794,10.423,2.416,11.972q3.271,3.311,9.815,3.319h4.571v2.781H384.3v-2.781h4.387q7.429,0,10.617-4.221c1.213-1.55,1.8-5.252,1.8-11.07V165.314c0-6.437-.794-10.431-2.418-11.972q-3.351-3.324-10-3.319H384.3v-2.781h42.689q18.7,0,27.538,2.371a32.046,32.046,0,0,1,15.032,8.772,21.052,21.052,0,0,1,6.194,15.218A22.31,22.31,0,0,1,468.7,190c-4.716,4.632-11.966,7.9-21.846,9.828,30.485,58.439,91,85.457,184.147,62.023l-.275,2.627c-100.41,31.449-155.3,9.282-201.038-62.717m-11.958-4.786c1.095,0,2.035,0,2.827.027s1.45.045,1.952.045q16.583,0,24.993-6.327,8.455-6.373,8.438-16.168a19.935,19.935,0,0,0-6.787-15.6c-4.534-3.984-10.554-5.99-18.005-5.99a88.128,88.128,0,0,0-13.418,1.386Z" fill="#e92f2b"/>
      <path id="Path_9" data-name="Path 9" d="M86.787,294.646a56.8,56.8,0,0,1,39.477,15.135q16.72,15.142,16.711,37.786,0,23.321-16.83,38.717-16.8,15.4-40.745,15.391-24.149,0-40.591-15.035Q28.35,371.622,28.354,347.777q0-24.373,18.99-39.774,16.488-13.348,39.443-13.357m-1.652,5.406q-15.653,0-25.148,10.194-11.809,12.707-11.822,37.166,0,25.058,12.233,38.588c6.285,6.848,14.539,10.268,24.828,10.268q16.488,0,27.21-11.253,10.742-11.271,10.727-35.489,0-26.3-11.822-39.209-9.455-10.272-26.206-10.266" fill="#e92f2b"/>
      <path id="Path_10" data-name="Path 10" d="M315.389,296.962v2.781a16.692,16.692,0,0,0-7.436,1.44,14.8,14.8,0,0,0-5.419,5.353c-1.148,1.751-2.982,5.973-5.453,12.611l-32.546,82.528H261.05L234.342,336.19l-26.387,65.486H204.8L170.073,316.73c-2.592-6.382-4.243-10.139-4.925-11.3a10.494,10.494,0,0,0-4.716-4.276,18.881,18.881,0,0,0-8.072-1.414v-2.781h43.271v2.781h-2.09q-4.552,0-6.988,1.823a5.336,5.336,0,0,0-2.416,4.377c0,1.778,1.267,5.844,3.8,12.228L211.02,375.6l19.494-48.8-3.542-8.6-2.772-6.9a37.1,37.1,0,0,0-4.04-6.693,10.847,10.847,0,0,0-2.774-2.445,15.763,15.763,0,0,0-4.332-1.95,20.716,20.716,0,0,0-5.181-.466v-2.781h45.543v2.781H250.3q-4.828,0-7.077,1.823a6,6,0,0,0-2.244,4.943c0,2.572,1.3,7.1,3.894,13.541l22.494,55.575,22.257-56.369q3.8-9.424,3.8-13.056a5.04,5.04,0,0,0-1.241-3.264,6.833,6.833,0,0,0-3.145-2.135,28.867,28.867,0,0,0-8.558-1.057v-2.781Z" fill="#e92f2b"/>
      <path id="Path_11" data-name="Path 11" d="M314.5,296.962h31.515l71.849,76.885V314.724c0-6.31-.828-10.249-2.444-11.816-2.153-2.108-5.573-3.164-10.234-3.164h-4.131v-2.781h41.22v2.781h-4.186c-5.044,0-8.584,1.313-10.7,3.939-1.268,1.623-1.916,5.3-1.916,11.041V401h-3.128l-77.179-82.466V381.6c0,6.3.794,10.239,2.354,11.807q3.31,3.175,10.261,3.173h4.186v2.773h-41.22v-2.773h4.131c5.071,0,8.637-1.313,10.755-3.939q1.915-2.433,1.925-11.041V310.4a50.927,50.927,0,0,0-7.727-6.875,31.533,31.533,0,0,0-7.725-3.118,32.518,32.518,0,0,0-7.608-.665Z" fill="#e92f2b"/>
      <path id="Path_12" data-name="Path 12" d="M173.672,444.286v2.781a16.689,16.689,0,0,0-7.434,1.44,14.8,14.8,0,0,0-5.419,5.353c-1.148,1.751-2.982,5.973-5.455,12.611L122.818,549h-3.484L92.627,483.514,66.238,549H63.083L28.356,464.055c-2.59-6.382-4.241-10.139-4.925-11.3a10.485,10.485,0,0,0-4.716-4.276,18.9,18.9,0,0,0-8.072-1.414v-2.781H53.914v2.781H51.826c-3.037,0-5.372.61-6.988,1.823a5.336,5.336,0,0,0-2.416,4.377c0,1.778,1.267,5.844,3.8,12.228L69.3,522.922l19.492-48.8-3.54-8.6-2.772-6.9a37.2,37.2,0,0,0-4.04-6.693,10.875,10.875,0,0,0-2.774-2.445,15.8,15.8,0,0,0-4.332-1.95,20.726,20.726,0,0,0-5.181-.466v-2.781H111.7v2.781H108.58q-4.828,0-7.077,1.823a6,6,0,0,0-2.244,4.943c0,2.572,1.3,7.1,3.894,13.541l22.494,55.576L147.9,466.58q3.8-9.424,3.8-13.056a5.04,5.04,0,0,0-1.241-3.264,6.829,6.829,0,0,0-3.147-2.135,28.847,28.847,0,0,0-8.557-1.057v-2.781Z" fill="#e92f2b"/>
      <path id="Path_13" data-name="Path 13" d="M236.587,512.552H191.153l-7.845,16.03c-1.942,3.965-2.946,6.947-2.946,8.908a5.057,5.057,0,0,0,2.564,4.121c1.688,1.158,5.372,1.934,11,2.288v2.781h-36.97V543.9c4.9-.747,8.045-1.723,9.5-2.936,2.946-2.415,6.185-7.331,9.76-14.716l41.238-84.281h2.918l40.774,85.174c3.274,6.848,6.249,11.28,8.93,13.34,2.691,2.034,6.4,3.164,11.21,3.419v2.781H235.055V543.9c4.652-.21,7.807-.874,9.459-2.032a5.041,5.041,0,0,0,2.444-4.25c0-2.214-1.139-5.716-3.447-10.5Zm-2.653-5.563-19.748-41.315L193.9,506.989Z" fill="#e92f2b"/>
      <path id="Path_14" data-name="Path 14" d="M351.535,444.286h40.89v2.781h-2.241a19.711,19.711,0,0,0-6.57,1.751,26.034,26.034,0,0,0-7.871,4.987,68.824,68.824,0,0,0-8.7,10.6l-28.188,38.461v26.051c0,6.3.832,10.239,2.447,11.807q3.323,3.175,10.5,3.173h3.867v2.773H305.427V543.9h4.212c5.018,0,8.555-1.312,10.674-3.939,1.267-1.622,1.914-5.307,1.914-11.041V504.978l-32.072-43.294c-3.8-4.987-6.366-8.133-7.725-9.365-1.359-1.268-4.161-2.754-8.428-4.5a13.162,13.162,0,0,0-5.018-.747v-2.781h50v2.781h-2.6a16.962,16.962,0,0,0-7.489,1.668c-2.262,1.113-3.422,2.754-3.422,4.97,0,1.833,1.77,5.1,5.312,9.828l24.263,33,23.113-31.55c3.484-4.741,5.192-8.27,5.192-10.586a6.153,6.153,0,0,0-1.241-3.783,8.253,8.253,0,0,0-3.6-2.6,19.431,19.431,0,0,0-6.984-.948Z" fill="#e92f2b"/>
    </g>
  </g>
</svg>
