<svg id="Group_4" data-name="Group 4" xmlns="http://www.w3.org/2000/svg" xmlns:xlink="http://www.w3.org/1999/xlink" width="421" height="34" viewBox="0 0 421 34">
  <defs>
    <clipPath id="clip-path">
      <rect id="Rectangle_7" data-name="Rectangle 7" width="421" height="34" fill="none"/>
    </clipPath>
  </defs>
  <g id="Group_3" data-name="Group 3" clip-path="url(#clip-path)">
    <path id="Path_15" data-name="Path 15" d="M38.615,28.911,36.9,5.293c-.192-2.386.383-3.007,3.057-3.007V.882H31.12L21.385,24.916,11.075.882H2.244v1.4c2.767,0,3.294.671,3,5.289L4.1,26.679c-.285,4.516-1.144,5.087-4.1,5.087v1.4H10.6v-1.4c-3.153-.259-4.249-.259-3.917-5.812L7.828,6.749l11.31,26.418h1.623L31.789,6.073l1.386,19.155c.381,5.5-.288,6.539-4.2,6.539v1.4H42.53v-1.4c-2.817,0-3.724-.206-3.915-2.856" fill="#050605"/>
    <path id="Path_16" data-name="Path 16" d="M59.842.1C51.859.1,46.131,5.627,46.131,13.339c0,6.541,4.8,12.261,13.029,12.261,8.556,0,13.461-6.188,13.461-13.12C72.621,5.2,67.322.1,59.842.1m.142,23.825c-5.045,0-8.518-5.024-8.518-12.457,0-5.88,2.971-9.7,7.518-9.7,5.441,0,8.3,5.842,8.3,12.11,0,5.37-2.327,10.043-7.3,10.043" fill="#050605"/>
    <path id="Path_17" data-name="Path 17" d="M103.043,2.286c3.865,0,4.582.41,4.582,4.465V20.608c0,7.68-4.965,10.172-10.262,10.172-5.966,0-10.214-3.166-10.214-10.07V6.751c0-3.638.669-4.465,4.2-4.465V.882H77.793v1.4c3.294,0,4.059.776,4.059,3.942V20.814C81.852,29.276,86.719,34,95.79,34c8.685,0,14.461-4.671,14.461-12.82V6.751c0-3.638.719-4.465,4.344-4.465V.882H103.043Z" fill="#050605"/>
    <path id="Path_18" data-name="Path 18" d="M144.75,2.286c4.155-.053,4.726.567,4.726,4.465V25.332L128.187.882h-8.639v1.4a5.808,5.808,0,0,1,4.011,1.66V27.3c0,3.372-.573,4.569-4.011,4.465v1.4h11.408v-1.4c-4.3.261-4.774-1.041-4.774-5.089V6.751l23.342,26.73H152.1V6.849c0-3.942,1-4.562,4.2-4.562V.882H144.75Z" fill="#050605"/>
    <path id="Path_19" data-name="Path 19" d="M190.183,0c-.285.776-.667.882-3.1.882H166.891a10.845,10.845,0,0,1-2.34-.157c-.431-.1-.573-.366-.763-.725H162.5l-.856,8.929h1.384c.717-5.4,1.671-5.712,4.486-5.712h6.828v24.45c0,3.423-.765,4.1-5.538,4.1v1.4h16.372v-1.4c-5.011,0-5.536-.572-5.536-4.1V3.217h6.826c2.863,0,3.817.312,4.486,5.712h1.384L191.473,0Z" fill="#050605"/>
    <path id="Path_20" data-name="Path 20" d="M417.858,20.1A12.305,12.305,0,0,0,421,11.862a11.183,11.183,0,0,0-2.838-7.722C415.657,1.417,412.48.5,405.714.5c-1.654,0-2.938.074-4.63.185-1.521.111-3.617.183-5.445.3V2.412c2.6,0,3.144.623,3.144,3.234v14.2c0,2.1-.915,2.573-3.144,2.573v1.434h10.754c6.93,0,9.739-1.876,11.464-3.751m-14.407-.516V2.412a16.48,16.48,0,0,1,2.638-.185c3.448,0,5.718.844,7.374,2.646a11.241,11.241,0,0,1,2.5,7.467c0,4.373-1.961,10.041-9.57,10.041-2.6,0-2.942-.331-2.942-2.8" fill="#050605"/>
    <path id="Path_21" data-name="Path 21" d="M349.611,25.553,340.819.009h-5.049l.363,1.224-8.16,24.321c-1.267,3.825-1.852,4.365-4.872,4.414v1.324h11V29.967c-3.609.149-4.513-.491-4.513-1.913a6.74,6.74,0,0,1,.45-2.057l2.209-6.524h10.327l2.165,6.08a8.965,8.965,0,0,1,.633,2.6c0,1.422-.994,1.813-4.557,1.813v1.324h13.39V29.967c-2.84,0-3.288-.589-4.6-4.414m-16.5-8.532,4.282-12.406,4.328,12.406Z" fill="#050605"/>
    <path id="Path_22" data-name="Path 22" d="M325.163.791h-9.741V2.119c2.436,0,3.294.387,3.294,1.468a7.385,7.385,0,0,1-.677,2.4l-7.8,20.251-6.089-13.634,2.93-6.373c1.667-3.678,2.121-4.069,5.23-4.116V.791H291.163V2.119c2.978-.051,3.38.147,5.1,4.116l4.147,9.512-4.734,10.642L287.827,8.3a17.222,17.222,0,0,1-1.488-4.56c0-1.23.631-1.519,2.93-1.617V.791H276.194V2.119c3.428,0,4.1.387,5.68,4.116l11.006,25.84h2.792l5.953-13.536,5.905,13.536h2.884l9.518-24.712c1.936-5.049,2.7-5.2,5.23-5.244ZM300.815,5.155a5.889,5.889,0,0,1-.679-2.206c0-.635.408-.831,1.984-.831h1.669c1.488,0,1.938.24,1.938.878a4.362,4.362,0,0,1-.494,1.668l-2.3,5.2Z" fill="#050605"/>
    <path id="Path_23" data-name="Path 23" d="M400.59,30.672A23.458,23.458,0,0,1,394.2,29.9c-4.607-1.281-6.582-2.2-10.6-6.556l-2.93-3.19a44.157,44.157,0,0,0-3.382-3.383c3.788-1.715,5.682-4.365,5.682-7.992C382.971,4.316,379.86,0,370.754,0c-.9,0-3.113,0-5.5.1-3.115.147-5.416.344-6.447.344V1.764c3.694,0,4.188.786,4.188,3.972V25.4c0,3.234-.406,4.36-4.188,4.218v1.322H372.6V29.62c-4.1.142-4.595-.64-4.595-4.856V18.29a21.6,21.6,0,0,0,4.011,0A36.038,36.038,0,0,1,376.886,23l2.386,2.6a23.387,23.387,0,0,0,8.356,6.037c5.7,2.652,8.879,2.705,15.8,1.932a37.427,37.427,0,0,0,14.736-4.828l.356-1.932c-6.749,3.092-10.808,4.105-17.934,3.865M369.268,17.066c-.273,0-1.129-.1-1.444-.147V1.57a12.568,12.568,0,0,1,2.163-.2c4.918,0,7.349,2.945,7.349,7.9,0,5-2.073,7.5-8.068,7.8" fill="#050605"/>
    <path id="Path_24" data-name="Path 24" d="M255.767.4c-1.713,0-4.011,0-6.447.1-1.892.1-5.772.3-7.078.3V2.121c3.428-.051,4.284.731,4.284,4.31V26c0,3.283-.452,3.97-4.284,3.97v1.324h14.021c13.215,0,17.857-8.921,17.857-16.131a15.082,15.082,0,0,0-3.878-10.444C267.49,1.728,262.579.4,255.767.4m9.379,25.989c-2.073,2.252-4.87,3.53-10.281,3.53-2.93,0-3.336-.44-3.336-3.53V1.87c1.127-.1,2.525-.1,3.292-.1,5.276,0,8.116,1.126,10.373,3.579,2.748,2.992,3.469,6.966,3.469,10.5,0,3.43-.767,7.548-3.517,10.54" fill="#050605"/>
    <path id="Path_25" data-name="Path 25" d="M229.975,29.083H224.97c-2.3,0-2.661-.491-2.661-3.53V16.628H229.3c2.48,0,3.065.442,3.38,3.927H233.9V10.7h-1.221c-.271,3.385-.765,3.732-3.38,3.732h-6.989V3h7.935c2.888,0,3.609.1,4.509,4.118l.225,1.031H236.2L235.789.793H212.751V2.119c3.065,0,4.553.1,4.553,3.33V26.586c0,2.743-.9,3.383-4.553,3.383v1.322h24.436l.677-7.7h-1.215c-1.217,4.807-2.119,5.489-6.674,5.489" fill="#050605"/>
    <rect id="Rectangle_6" data-name="Rectangle 6" width="15.642" height="2.444" transform="translate(52.413 30.668)" fill="#050605"/>
  </g>
</svg>
