<svg xmlns="http://www.w3.org/2000/svg" xmlns:xlink="http://www.w3.org/1999/xlink" width="40" height="40" viewBox="0 0 40 40">
  <defs>
    <clipPath id="clip-path">
      <rect id="Rectangle_9" data-name="Rectangle 9" width="40" height="40" transform="translate(0 0)" fill="none"/>
    </clipPath>
  </defs>
  <g id="Search" transform="translate(0 0)">
    <g id="Group_6" data-name="Group 6">
      <g id="Group_5" data-name="Group 5" clip-path="url(#clip-path)">
        <path id="Path_26" data-name="Path 26" d="M23.416,33.165A16.582,16.582,0,0,1,11.691,4.856a16.583,16.583,0,1,1,23.45,23.453,16.474,16.474,0,0,1-11.725,4.856m0-31.209A14.626,14.626,0,0,0,13.073,26.925,14.627,14.627,0,1,0,33.76,6.24,14.537,14.537,0,0,0,23.416,1.956" fill="#191717"/>
        <rect id="Rectangle_8" data-name="Rectangle 8" width="16.72" height="1.957" transform="matrix(0.707, -0.707, 0.707, 0.707, 0, 38.617)" fill="#191717"/>
      </g>
    </g>
  </g>
</svg>
