<svg xmlns="http://www.w3.org/2000/svg" xmlns:xlink="http://www.w3.org/1999/xlink" width="38.001" height="44" viewBox="0 0 38.001 44">
  <defs>
    <clipPath id="clip-path">
      <rect id="Rectangle_11" data-name="Rectangle 11" width="38.001" height="44" transform="translate(0 0.001)" fill="none"/>
    </clipPath>
  </defs>
  <g id="Log_in" data-name="Log in" transform="translate(0 -0.001)">
    <g id="Group_10" data-name="Group 10">
      <g id="Group_9" data-name="Group 9" clip-path="url(#clip-path)">
        <path id="Path_31" data-name="Path 31" d="M19,28a13.848,13.848,0,0,1-9.868-4.1,14.055,14.055,0,0,1,0-19.8,13.922,13.922,0,0,1,19.736,0,14.055,14.055,0,0,1,0,19.8A13.848,13.848,0,0,1,19,28m0-26.07a11.931,11.931,0,0,0-8.5,3.533,12.111,12.111,0,0,0,0,17.066,12,12,0,0,0,17.007,0,12.111,12.111,0,0,0,0-17.066A11.934,11.934,0,0,0,19,1.935" fill="#191717"/>
        <path id="Path_32" data-name="Path 32" d="M38,44H0V37.4a7.776,7.776,0,0,1,8.026-8.053,20.57,20.57,0,0,1,5.183.7,23.9,23.9,0,0,0,6.125.776,24.047,24.047,0,0,0,6.393-.839,16.683,16.683,0,0,1,4.247-.637A8.363,8.363,0,0,1,38,37.4ZM1.928,42.065H36.07V37.4a6.438,6.438,0,0,0-6.1-6.116,15.04,15.04,0,0,0-3.792.58,25.709,25.709,0,0,1-6.848.894,25.832,25.832,0,0,1-6.561-.824,18.978,18.978,0,0,0-4.747-.65,5.843,5.843,0,0,0-6.1,6.116Z" fill="#191717"/>
      </g>
    </g>
  </g>
</svg>
